<svg width="24" height="24" viewBox="0 0 24 24" fill="none" xmlns="http://www.w3.org/2000/svg">
<path d="M20.6201 13.0701C20.2401 13.0701 19.9201 12.7801 19.8701 12.4001C19.6301 10.1401 18.4101 8.0901 16.5301 6.7901C16.1901 6.5501 16.1101 6.0901 16.3401 5.7501C16.5801 5.4101 17.0501 5.3301 17.3801 5.5601C19.6201 7.1101 21.0601 9.5501 21.3501 12.2401C21.3901 12.6501 21.1001 13.0201 20.6801 13.0701C20.6701 13.0701 20.6401 13.0701 20.6201 13.0701Z" fill="#292D32"/>
<path d="M3.48991 13.12C3.45991 13.12 3.43991 13.12 3.40991 13.12C2.99991 13.07 2.69991 12.7 2.73991 12.29C3.00991 9.60001 4.43991 7.17001 6.64991 5.60001C6.98991 5.36001 7.45991 5.44001 7.69991 5.78001C7.93991 6.12001 7.85991 6.59001 7.51991 6.83001C5.65991 8.14001 4.45991 10.19 4.22991 12.45C4.19991 12.83 3.86991 13.12 3.48991 13.12Z" fill="#292D32"/>
<path d="M12.06 22.61C10.58 22.61 9.16997 22.27 7.84997 21.61C7.47997 21.42 7.32997 20.97 7.51997 20.6C7.70997 20.23 8.15997 20.08 8.52997 20.27C10.69 21.36 13.29 21.38 15.47 20.33C15.84 20.15 16.29 20.31 16.47 20.68C16.65 21.05 16.49 21.5 16.12 21.68C14.84 22.3 13.48 22.61 12.06 22.61Z" fill="#292D32"/>
<path d="M12.0598 8.43988C10.1098 8.43988 8.52979 6.85988 8.52979 4.90988C8.52979 2.95988 10.1098 1.37988 12.0598 1.37988C14.0098 1.37988 15.5898 2.95988 15.5898 4.90988C15.5898 6.85988 13.9998 8.43988 12.0598 8.43988ZM12.0598 2.88988C10.9398 2.88988 10.0298 3.79988 10.0298 4.91988C10.0298 6.03988 10.9398 6.94988 12.0598 6.94988C13.1798 6.94988 14.0898 6.03988 14.0898 4.91988C14.0898 3.79988 13.1698 2.88988 12.0598 2.88988Z" fill="#292D32"/>
<path d="M4.8298 20.6701C2.8798 20.6701 1.2998 19.0901 1.2998 17.1401C1.2998 15.2001 2.8798 13.6101 4.8298 13.6101C6.7798 13.6101 8.3598 15.1901 8.3598 17.1401C8.3598 19.0801 6.7798 20.6701 4.8298 20.6701ZM4.8298 15.1101C3.7098 15.1101 2.7998 16.0201 2.7998 17.1401C2.7998 18.2601 3.7098 19.1701 4.8298 19.1701C5.9498 19.1701 6.85981 18.2601 6.85981 17.1401C6.85981 16.0201 5.9498 15.1101 4.8298 15.1101Z" fill="#292D32"/>
<path d="M19.1701 20.6701C17.2201 20.6701 15.6401 19.0901 15.6401 17.1401C15.6401 15.2001 17.2201 13.6101 19.1701 13.6101C21.1201 13.6101 22.7001 15.1901 22.7001 17.1401C22.6901 19.0801 21.1101 20.6701 19.1701 20.6701ZM19.1701 15.1101C18.0501 15.1101 17.1401 16.0201 17.1401 17.1401C17.1401 18.2601 18.0501 19.1701 19.1701 19.1701C20.2901 19.1701 21.2001 18.2601 21.2001 17.1401C21.1901 16.0201 20.2901 15.1101 19.1701 15.1101Z" fill="#292D32"/>
</svg>
